<svg xmlns="http://www.w3.org/2000/svg" viewBox="0 0 720 280" role="img" aria-label=">A:0 ?> A>B@C4=8:0<">
  <rect width="720" height="280" rx="12" fill="#121820"/>
  <rect x="12" y="12" width="200" height="256" rx="10" fill="#1c2636" stroke="#60a5fa" stroke-width="2"/>
  <text x="24" y="38" fill="#60a5fa" font-size="11" font-weight="700">+</text>
  <text x="24" y="58" fill="#f0f4f8" font-size="14" font-weight="700">20=>2</text>
  <rect x="24" y="72" width="176" height="44" rx="8" fill="#263348" stroke="#3a4f6a"/>
  <rect x="24" y="124" width="176" height="44" rx="8" fill="#263348" stroke="#3a4f6a"/>
  <rect x="24" y="176" width="176" height="44" rx="8" fill="#263348" stroke="#3a4f6a"/>

  <rect x="224" y="12" width="156" height="120" rx="10" fill="#1c2636" stroke="#34d399"/>
  <text x="236" y="38" fill="#f0f4f8" font-size="13" font-weight="700">5B@>2</text>
  <text x="236" y="58" fill="#9eb0c4" font-size="11">5 0:B82=KE</text>
  <rect x="236" y="72" width="132" height="44" rx="8" fill="#34d399" fill-opacity="0.12" stroke="#34d399" stroke-dasharray="4 3"/>
  <text x="302" y="98" fill="#34d399" font-size="11" text-anchor="middle">5@5B0I8B5 7040GC</text>

  <rect x="388" y="12" width="156" height="120" rx="10" fill="#1c2636" stroke="#f472b6"/>
  <text x="400" y="38" fill="#f0f4f8" font-size="13" font-weight="700">!84>@>20</text>
  <text x="400" y="58" fill="#9eb0c4" font-size="11">2 0:B82=KE</text>
  <rect x="400" y="72" width="132" height="44" rx="8" fill="#f472b6" fill-opacity="0.1" stroke="#f472b6" stroke-dasharray="4 3"/>

  <rect x="552" y="12" width="156" height="120" rx="10" fill="#1c2636" stroke="#fb923c"/>
  <text x="564" y="38" fill="#f0f4f8" font-size="13" font-weight="700">>7;>2</text>
  <text x="564" y="58" fill="#9eb0c4" font-size="11">1 0:B82=0O</text>
  <rect x="564" y="72" width="132" height="44" rx="8" fill="#fb923c" fill-opacity="0.1" stroke="#fb923c" stroke-dasharray="4 3"/>

  <path d="M120 140 C180 100, 260 90, 300 90" fill="none" stroke="#60a5fa" stroke-width="2" marker-end="url(#arrow)"/>
  <defs><marker id="arrow" markerWidth="8" markerHeight="8" refX="6" refY="3" orient="auto"><path d="M0,0 L6,3 L0,6 Z" fill="#60a5fa"/></marker></defs>
</svg>
